<svg height="377" viewBox="0 0 360 377" width="360" xmlns="http://www.w3.org/2000/svg"><g fill="none" fill-rule="evenodd" transform="translate(-2)"><path d="m191.618342 118.16692-116.4132661 2.346569c17.9811514-69.0089927 35.3118671-103.513489 51.9921471-103.513489 25.02042 0 96.776399 71.0295185 125.947351 65.0546875 19.447301-3.9832206 55.732443-31.3347831 108.855426-82.0546875v163z" fill="#88b2ca"/><path d="m0 66.2082245c35.6572342 45.4409205 62.3239009 62.5637805 80 51.3685815 43.548387-27.5814758 86.930814-74.576806 137.041701-74.576806 31.490425 0 65.652041 27.4241617 94.667802 59.966076 17.315458 19.419727 50.290497 38.569196 50.290497 38.569196v235.464728h-362z" fill="#4c7e72"/><path d="m75.2050759 119.528532-23.2050759 27.083402 245.835491 115.34565-134.362219 115.042416h-163.473272l180-115.042416-180-107.204482 55.779699-36.753102c2.4973753.795688 5.2785095 1.476698 8.3434027 2.043031s6.7588846.394834 11.0819742-.514499z" fill="#d8d8d8"/><path d="m157.402979 318 10.964523 3.205484-41.635742 31.794516-16.488656-4.328303z" fill="#f6f6f6"/><g transform="translate(80 279.054687)"><path d="m30 90c20-29.3063189 30-49.4197047 30-60.3401572 0-16.3806789-13.4314575-29.6598428-30-29.6598428s-30 13.2791639-30 29.6598428c0 10.9204525 10 31.0338383 30 60.3401572z" fill="#4eb148"/><circle cx="30" cy="30" fill="#d8d8d8" r="17"/></g><g fill="#f6f6f6"><path d="m214.209367 279 7.259735 1.933023-33.1016 24.066977-11.367502-2.96331z"/><path d="m210.061692 247.617965 25.669088 13.382035 8.26922-4.930042-26.204213-13.069958z"/><path d="m163.138054 222.943057 21.594826 11.056943 6.885462-4.271893-21.655795-10.728107z"/><path d="m126.951107 204.219788 18.620795 9.780212 6.399625-4.486762-19.471527-9.513238z"/><path d="m96.0056521 188.740658 16.4312579 8.259342 5.381671-3.960917-16.618377-8.039083z"/><path d="m71.1884677 175.525978 11.9928235 6.474022 4.8187088-3.550828-12.1969616-6.449172z"/><path d="m48.6075304 164.033228 11.8590184 5.966772 4.3416084-3.253866-12.277387-5.746134z"/><path d="m30.5954267 154.947213 8.9931579 5.052787 4.220454-3.382811-9.1050676-4.617189z"/><path d="m28.3807824 146.832525 4.5656494 2.167475 6.9978007-6.237335-3.8652122-1.762665z"/><path d="m52 129.274877 1.8514917.725123 3.1485083-2.444543-1.4456783-.555457z"/><path d="m42 136.549754 2.9623868 1.450246 5.0376132-4.889087-2.3130853-1.110913z"/><path d="m59 123.516585 1.110895.483415 1.889105-1.629696-.867407-.370304z"/></g><g transform="translate(45 65.054687)"><path d="m17 53c11.3333333-17.2581656 17-29.102715 17-35.5336482 0-9.64639971-7.6111593-17.4663518-17-17.4663518-9.38884075 0-17 7.81995209-17 17.4663518 0 6.4309332 5.66666667 18.2754826 17 35.5336482z" fill="#4eb148"/><circle cx="17" cy="17" fill="#fff" r="10"/></g><g transform="translate(187 17.054687)"><path d="m119.474887 55.5989038.631539-.3021069c20.87478-9.8701989 35.824884-5.7307586 44.850312 12.4183208 15.384253 30.9359308 9.596046 71.4711623-5.788206 102.4070933-9.2275 18.55542-23.945894 23.516865-44.155182 14.884334-10.947635-1.765412-19.2536955 4.566083-24.917895 18.993455l-6.1746449-1.227297c-1.1638956-12.212175-7.3144603-18.090099-18.4516941-17.633772-18.3176496 6.482827-33.0221491 2.526571-44.113999-11.867628-19.0790462-24.759403-29.45022153-71.743269-13.57568189-100.2945675 8.16675439-14.6883907 20.77908879-15.9651034 37.83700309-3.830138.2260724-37.4898773 12.3905244-59.96825381 36.4931072-67.43494145 24.6770426-7.64464836 37.1321566 10.31776755 37.3653416 53.88724775z" fill="#4eb148"/><path d="m91.1626183 29c-6.8688138 65.3609651-10.3744866 107.377325-10.5170185 126.049079-.0078786 1.032103-5.8151043-12.059861-14.9719416-18.964961-3.7078361-2.79605-13.1556721-7.60033-28.3435081-14.412838-3.0577159-1.37154-8.1677659-3.611995-15.3301501-6.721367 22.8504014 11.844861 36.5782461 20.193226 41.1835341 25.045095 11.5708292 12.190366 16.488518 24.851645 17.7171174 29.936953 1.2285993 5.085308 1.2285993 9.102405 2.5785693 42.770272.89998 22.445245-5.0352075 48.544501-17.8055626 78.297767h42.4320838c-7.076804-1.416244-12.7245118-28.589467-16.9431237-81.519668-1.6188877-20.311907-2.616529-41.688514-2.9929239-64.129821-.0252188-1.503592 4.0376955-15.191848 19.5222226-33.010513 3.369492-3.877409 10.472187-9.220257 21.308083-16.0285425-10.349495 5.1841035-17.452189 9.3910315-21.308083 12.6207845-13.1655115 11.027626-19.6020359 21.43325-19.5968847 20.417624.0810021-15.970508 1.1035308-49.4204623 3.067586-100.349864z" fill="#4c7e72"/></g></g></svg>