<svg height="152" viewBox="0 0 360 152" width="360" xmlns="http://www.w3.org/2000/svg"><g fill="none" fill-rule="evenodd"><path d="m0 51.3062392c49.4915271-20.8839608 75.864876-31.989378 79.1200468-33.3162517 4.8827562-1.9903106 18.7275118-5.9759791 29.6176042-4.7654732 10.890092 1.2105059 69.483167 11.6023892 123.341344 19.5800801 35.905452 5.3184606 78.545787 23.5402618 127.921005 54.6654034v73.5300022h-360z" fill="#a2cbde"/><path d="m360 20.2528399c-9.013516-2.6823963-25.006853-7.218372-38.87221-11.1794316-23.189634-6.6248223-45.58096-10.74249375-55.324404-8.42007789-15.426844 3.67709291-24.869192 15.99087499-37.792693 31.42603809-12.9235 15.4351631-19.273481 19.8067953-29.734069 20.6153324-8.216653.6350952-17.408275-2.9468033-28.139152-8.0026419-24.336126-11.4659335-28.53431-13.5642299-39.750898-13.5642299s-24.960482 13.7369087-38.2837253 25.7921123c-10.7494259 9.7263493-20.4208488 17.7298527-24.0735752 20.762747-5.4533687 4.5279852-21.3078338 18.1912285-47.5633951 40.9897296l-20.4658784 42.327582h360c0-93.8314401 0-140.7471601 0-140.7471601z" fill="#88b2ca"/><path d="m0 81c17.9982342 12.7611336 27.8807349 19.856443 29.6475021 21.285928 2.6501508 2.144228 10.5383981 9.856958 19.6189529 10.489073s13.3538071-1.557602 22.2693776-6.386598 28.0229-14.9878725 37.0194774-14.6372715c8.996577.3506011 12.604565 4.0321229 21.587191 6.9076348 3.053378.9774452 29.710395 8.3858957 63.154482 15.2945637 28.930901 5.976363 63.902143 12.274621 94.329035 18.297792 37.875213 7.497608 68.843906 14.711535 72.373982 16.434927v4.313951h-360" fill="#6792aa"/></g></svg>