<svg height="492" viewBox="0 0 361 492" width="361" xmlns="http://www.w3.org/2000/svg"><g fill="none" fill-rule="evenodd" transform="translate(-1 -1)"><path d="m191.618342 132.945312-116.4132661 2.621268c17.8170741-62.8362328 35.0657511-94.254349 51.7460311-94.254349 25.02042 0 87.877941 59.981617 117.048893 53.3073495 19.447301-4.449512 58.780635-35.674268 118-93.674268l-2 182.0814145z" fill="#88b2ca"/><path d="m0 60.8394446c35.6572342 63.1782754 62.3239009 86.9848524 80 71.4197324 43.548387-38.3475961 86.930814-103.6870276 137.041701-103.6870276 31.490425 0 65.652041 38.1288764 94.667802 83.3731636 17.315458 27 48.290497 55.017266 48.290497 55.017266v325.982734h-360z" fill="#4c7e72"/><path d="m75.2050759 135.56658-23.2050759 37.592638 245.835491 160.103496-134.362219 159.682599h-163.473272l180-159.682599-180-148.803291 55.779699-51.014496c2.4973753 1.104441 5.2785095 2.049706 8.3434027 2.835794 3.0648932.786089 6.7588846.548042 11.0819742-.714141z" fill="#d8d8d8"/><path d="m157.402979 411.205987 10.964523 4.44625-41.635742 44.101403-16.488656-6.003685z" fill="#f6f6f6"/><g transform="translate(89 376.945312)"><path d="m30 90c20-29.3063189 30-49.4197047 30-60.3401572 0-16.3806789-13.4314575-29.6598428-30-29.6598428s-30 13.2791639-30 29.6598428c0 10.9204525 10 31.0338383 30 60.3401572z" fill="#4eb148"/><circle cx="30" cy="30" fill="#d8d8d8" r="17"/></g><g fill="#f6f6f6"><path d="m214.209367 356.945312 7.259735 2.715574-33.1016 33.810084-11.367502-4.162956z"/><path d="m210.061692 313.19512 25.669088 17.949172 8.26922-6.61261-26.204213-17.530587z"/><path d="m163.138054 279.502914 21.594826 15.347899 6.885462-5.92972-21.655795-14.891449z"/><path d="m126.951107 253.350748 18.620795 13.687038 6.399625-6.279055-19.471527-13.313419z"/><path d="m96.0056521 231.650004 16.4312579 11.477553 5.381671-5.504269-16.618377-11.171471z"/><path d="m71.1884677 213.464684 11.9928235 8.742577 4.8187088-4.79507-12.1969616-8.70902z"/><path d="m48.6075304 197.3132 11.8590184 8.592229 4.3416084-4.685609-12.277387-8.274508z"/><path d="m30.5954267 184.395905 8.9931579 6.654246 4.220454-4.454978-9.1050676-6.080587z"/><path d="m28.3807824 173.033025 4.5656494 2.853762 6.9978007-8.212259-3.8652122-2.320777z"/><path d="m52 148.736774 1.8514917 1.208538 3.1485083-4.074238-1.4456783-.925762z"/><path d="m42 159.011651 2.9623868 1.933661 5.0376132-6.518782-2.3130853-1.481218z"/><path d="m59 141.22019 1.110895.725122 1.889105-2.444543-.867407-.555457z"/></g><g transform="translate(45 85.945312)"><path d="m17 53c11.3333333-17.2581656 17-29.102715 17-35.5336482 0-9.64639971-7.6111593-17.4663518-17-17.4663518-9.38884075 0-17 7.81995209-17 17.4663518 0 6.4309332 5.66666667 18.2754826 17 35.5336482z" fill="#4eb148"/><circle cx="17" cy="17" fill="#fff" r="10"/></g><g transform="translate(188 132.945312)"><path d="m119.474887 55.5989038.631539-.3021069c20.87478-9.8701989 35.824884-5.7307586 44.850312 12.4183208 15.384253 30.9359308 9.596046 71.4711623-5.788206 102.4070933-9.2275 18.55542-23.945894 23.516865-44.155182 14.884334-10.947635-1.765412-19.2536955 4.566083-24.917895 18.993455l-6.1746449-1.227297c-1.1638956-12.212175-7.3144603-18.090099-18.4516941-17.633772-18.3176496 6.482827-33.0221491 2.526571-44.113999-11.867628-19.0790462-24.759403-29.45022153-71.743269-13.57568189-100.2945675 8.16675439-14.6883907 20.77908879-15.9651034 37.83700309-3.830138.2260724-37.4898773 12.3905244-59.96825381 36.4931072-67.43494145 24.6770426-7.64464836 37.1321566 10.31776755 37.3653416 53.88724775z" fill="#4eb148"/><path d="m91.1626183 29c-6.8688138 65.3609651-10.3744866 107.377325-10.5170185 126.049079-.0078786 1.032103-5.8151043-12.059861-14.9719416-18.964961-3.7078361-2.79605-13.1556721-7.60033-28.3435081-14.412838-3.0577159-1.37154-8.1677659-3.611995-15.3301501-6.721367 22.8504014 11.844861 36.5782461 20.193226 41.1835341 25.045095 11.5708292 12.190366 16.488518 24.851645 17.7171174 29.936953 1.2285993 5.085308 1.2285993 9.102405 2.5785693 42.770272.89998 22.445245-5.0352075 48.544501-17.8055626 78.297767h42.4320838c-7.076804-1.416244-12.7245118-28.589467-16.9431237-81.519668-1.6188877-20.311907-2.616529-41.688514-2.9929239-64.129821-.0252188-1.503592 4.0376955-15.191848 19.5222226-33.010513 3.369492-3.877409 10.472187-9.220257 21.308083-16.0285425-10.349495 5.1841035-17.452189 9.3910315-21.308083 12.6207845-13.1655115 11.027626-19.6020359 21.43325-19.5968847 20.417624.0810021-15.970508 1.1035308-49.4204623 3.067586-100.349864z" fill="#4c7e72"/></g></g></svg>