<?xml version="1.0" encoding="UTF-8"?>
<svg width="17px" height="40px" viewBox="0 0 17 40" version="1.1" xmlns="http://www.w3.org/2000/svg" xmlns:xlink="http://www.w3.org/1999/xlink">
    <!-- Generator: Sketch 63.1 (92452) - https://sketch.com -->
    <title>arrow-dark</title>
    <desc>Created with Sketch.</desc>
    <g id="Mobile" stroke="none" stroke-width="1" fill="none" fill-rule="evenodd">
        <path d="M5.5,11 C5.74545989,11 5.94960837,11.1768752 5.99194433,11.4101244 L6,11.5 L6,38.199 L10.0356792,34.1643862 L10.1073745,34.1044534 C10.3111985,33.9624487 10.6083212,33.9634326 10.811716,34.1184708 C11.0151107,34.273509 11.056314,34.530415 10.9226514,34.7259005 L10.8643063,34.7960095 L5.66037029,40 L0.14663667,34.8066345 L0.0859277073,34.7380725 C-0.0368056724,34.5701373 -0.027319583,34.3517192 0.109627576,34.1923808 L0.176109082,34.1280295 L0.254638417,34.075026 C0.446987474,33.9678705 0.697158393,33.9761526 0.879660771,34.0957178 L0.953367243,34.1537612 L5,37.966 L5,11.5 C5,11.2238576 5.22385763,11 5.5,11 Z M11.6603703,0 L16.8643063,5.20399049 L16.9226514,5.27409953 C17.056314,5.46958499 17.0151107,5.72649098 16.811716,5.88152917 C16.6083212,6.03656737 16.3111985,6.03755126 16.1073745,5.89554657 L16.1073745,5.89554657 L16.0356792,5.83561383 L12,1.801 L12,28.5 L11.9919443,28.5898756 C11.9496084,28.8231248 11.7454599,29 11.5,29 C11.2238576,29 11,28.7761424 11,28.5 L11,28.5 L11,2.034 L6.95336724,5.84623885 L6.87966077,5.90428222 C6.69715839,6.02384742 6.44698747,6.03212949 6.25463842,5.92497399 L6.25463842,5.92497399 L6.17610908,5.87197049 L6.10962758,5.80761917 C5.97268042,5.64828083 5.96319433,5.42986274 6.08592771,5.2619275 L6.08592771,5.2619275 L6.14663667,5.19336547 L11.6603703,0 Z" id="arrow-dark" fill="#565656" fill-rule="nonzero"></path>
    </g>
</svg>