<svg height="36" viewBox="0 0 200 36" width="200" xmlns="http://www.w3.org/2000/svg"><g fill="none" fill-rule="evenodd"><path d="m149.806452 0h49.354839v35.419355h-49.354839z" fill="#0d4097"/><g fill="#fd0" transform="translate(158.348636 1.880674)"><path d="m4.78665347 10.3516659-1.1202806-.75376206-1.06935875.75376206.40737476-1.25627012-1.06935875-.80401288h1.32396798l.40737476-1.25627014.45829661 1.25627014h1.32396798l-1.06935875.80401288z"/><path d="m10.0316036 5.17583296-1.12028065-.75376208-1.06935875.75376208.40737476-1.25627014-1.06935875-.75376208h1.32396798l.40737476-1.30652094.40737477 1.30652094h1.37488978l-1.06935871.75376208z"/><path d="m17.1606619 3.31655316-1.0693587-.80401289-1.0693588.80401289.4073748-1.30652094-1.1202806-.75376208h1.3748898l.4073748-1.25627014.4073747 1.25627014h1.3748898l-1.1202805.75376208z"/><path d="m24.3406421 5.17583296-1.1202806-.75376208-1.0693587.75376208.4073747-1.25627014-1.0693587-.75376208h1.323968l.4073747-1.30652094.4582966 1.30652094h1.323968l-1.0693587.75376208z"/><path d="m29.5855922 10.3516659-1.1202806-.75376206-1.0693588.75376206.4073748-1.25627012-1.0693587-.75376208h1.3239679l.4073748-1.30652094.4582966 1.30652094h1.323968l-1.0693588.75376208z"/><path d="m31.4697005 17.4370295-1.0693588-.8040129-1.0693587.8040129.4073747-1.2562702-1.1202806-.8040128h1.3748899l.4073747-1.2562702.4073748 1.2562702h1.3748898l-1.1202806.8040128z"/><path d="m29.5855922 24.5223931-1.1202806-.8040129-1.0693588.8040129.4073748-1.306521-1.1202806-.7537621h1.3748898l.4073748-1.3065209.4073748 1.3065209h1.3748898l-1.1202806.7537621z"/><path d="m24.3406421 29.6479752-1.1202806-.7537621-1.0693587.7537621.4073747-1.2562701-1.0693587-.8040129h1.323968l.4073747-1.2562702.4582966 1.2562702h1.323968l-1.0693587.8040129z"/><path d="m17.1606619 31.5575058-1.0693587-.8040129-1.1202806.8040129.4073747-1.2562701-1.0693587-.8040129h1.3748898l.4073748-1.2562701.4073747 1.2562701h1.323968l-1.0693587.8040129z"/><path d="m10.0316036 29.6479752-1.12028065-.7537621-1.06935875.7537621.40737476-1.2562701-1.06935875-.8040129h1.32396798l.40737476-1.2562702.40737477 1.2562702h1.37488978l-1.06935871.8040129z"/><path d="m4.78665347 24.4721422-1.1202806-.753762-1.06935875.753762.40737476-1.2562701-1.06935875-.7537621h1.32396798l.40737476-1.3065209.40737477 1.3065209h1.37488982l-1.06935875.7537621z"/><path d="m2.85162334 17.4370295-1.06935875-.8040129-1.1202806.8040129.40737476-1.2562702-1.06935875-.8040128h1.32396798l.45829661-1.2562702.40737476 1.2562702h1.32396799l-1.06935876.8040128z"/></g><g fill="#fd0" transform="translate(164.992556 9.403369)"><path d="m7.21811067 4.02240464c-3.17830796 3.51766873-5.44852793 6.58943576-6.05391992 8.62076566-.10089867.2972677.05044933.396357.25224666.3468124.90808799-.6936249 3.48100396-1.1395265 4.54043995-1.1395265.60539199 0 .50449332.5945355-.10089867.6936248-2.4720173.3468124-3.22875729.5945356-5.04493327 1.5358835-.40359466.1981785-.85763866-.0990892-.80718932-.4954463.45404399-2.3781422 3.02695996-6.34171261 6.55841325-10.15664912.40359466-.49544629 1.16033465 0 .65584132.59453556"/><path d="m8.52979333 5.75646669c-1.00898666 1.28816038-1.61437865 2.37814224-2.27021998 4.06265966-.20179733.54499095-1.05943598.49544625-.85763865-.04954463.65584132-1.83315131 1.51347998-3.17085632 2.6233653-4.50856133.35314533-.4954463.85763865 0 .50449333.4954463"/><path d="m9.18563465 2.43697649c.302696-.29726778.85763865-.44590167 1.16033465-.14863389.2017973.19817852.0504493.74316944-.302696 1.08998185-.40359466.34681241-.90808798.44590167-1.16033465.24772315-.25224666-.24772315-.10089866-.8422587.302696-1.18907111"/><path d="m14.0792199 7.63916263c-.151348-.29726778.302696-.74316945.9585373-1.38724964.5044934-.54499093 1.1098854-.94134797 1.2612334-.4954463.2017973.4954463-.2522467.79271408-.8071894 1.28816038-.605392.54499093-1.2612333.94134797-1.4125813.59453556m-4.0359466 0c-.45404399.04954463-.30269599.94134797-.95853732 2.27905298-.70629065 1.38724959-1.16033465 2.72495469-1.05943598 3.46812409.10089866 1.0404372.95853732.8918033 1.16033465.6440802 1.00898665-1.0899819 1.51347995-2.1304191 1.86662535-3.616758.454044-1.93224056-.5044934-2.8240439-1.0089867-2.77449927m3.7332506-1.58542816c-.9585373-.14863389-2.2702199.19817852-3.0774093.79271408-.2522466.14863389-.1008986.39635704.0504494.39635704.908088.04954463 1.4630306 1.23861575 1.1098853 2.97267781-.4035947 1.9322406-1.1603347 3.9635704-2.87561198 4.7562845-.40359466.1981785-1.66482798.2972677-1.86662531-1.4367943-.151348-1.4863389 1.56392931-4.40947207 1.56392931-5.10309689 0-.09908926-.55494266-.29726778-.20179733-.64408019.25224667-.24772315.85763866-.39635704 1.10988532-.89180334 1.51347999-3.12131169 3.22875729-5.74717707 4.23774399-6.73806967.454044-.44590167 1.1098853.14863389.6558413.59453556-1.0089867.9908926-2.421568 2.97267779-3.632352 5.10309688-.1008986.24772315.1008987.29726778.2522467.19817852.908088-.4954463 2.3206693-.9908926 3.178308-.34681241.151348.09908926.2522466.09908926.4035946 0 .4035947-.29726778.908088-.59453556 1.2612333-.74316945 1.4630307-.4954463 1.3116827.84225871.9585374 1.33770501-.4035947.59453556-1.664828 1.73406205-3.1278587 2.17996372.0504494 1.68451746 3.0774093-.29726778 3.6828013-1.23861575.302696-.4954463 1.362132-.29726778.7062907.39635704-1.0089867 1.04043723-3.02696 2.62586537-4.54044 2.17996372-.5044933-.14863389-.8576386-.54499093-.8576386-1.13952649 0-.79271408.4035946-1.63497279.908088-2.27905298.2522466-.14863389.2522466-.29726778.1008986-.34681241"/></g><g fill-rule="nonzero"><path d="m47.6860448 16.2580645c2.0849916 0 3.3941724-1.5932903 3.3941724-3.3654193v-.0975484c0-1.2030968-.6303463-2.4061936-1.648598-2.91019357.7919735-.52025807 1.3253435-1.59329033 1.3253435-2.61754839v-.11380645c0-1.54451613-1.3091808-3.08903226-3.0709179-3.08903226h-3.7982405c-.2424409 0-.3394172.09754839-.3394172.34141935v11.51070972c0 .2438709.0969763.3414193.3394172.3414193zm-.468719-7.67380644h-.4525563c-.2424409 0-.3070918-.06503225-.3070918-.30890322v-1.21935484c0-.32516129.0646509-.39019355.3070918-.39019355h.4525563c.3879054 0 .7111599.37393549.7111599.92670968v.06503226c0 .53651613-.3394172.92670967-.7111599.92670967zm-.0484882 5.07251614h-.4040681c-.2424409 0-.3070918-.0650323-.3070918-.3089032v-1.8534194c0-.243871.0646509-.3089032.3070918-.3089032h.4040681c.5818581 0 1.002089.4552258 1.002089 1.2030968v.0650322c0 .7153549-.4363936 1.2030968-1.002089 1.2030968zm7.6776115 2.6012903c.2424409 0 .3394173-.0975484.3394173-.3414193v-3.1540646c0-.2438709.0646509-.3089032.3070917-.3089032h.4525564l1.3738316 3.5767742c.0646509.1625807.1939527.2276129.4040682.2276129h2.3920833c.1616273 0 .2262782-.1300645.1454646-.3251613l-1.7778998-4.3409032c.824299-.7153548 1.3253434-1.82090323 1.3253434-3.15406452v-.35767742c0-2.35741935-1.5839471-4.01574193-3.6689386-4.01574193h-3.5234742c-.2424409 0-.3394172.09754839-.3394172.34141935v11.51070972c0 .2438709.0969763.3414193.3394172.3414193zm.9536008-6.56825805h-.3070918c-.2424408 0-.3070917-.06503226-.3070917-.30890322v-2.40619355c0-.24387097.0646509-.30890323.3070917-.30890323h.3070918c.5980209 0 1.0990654.47148387 1.0990654 1.41445161v.19509678c0 .94296774-.5010445 1.41445161-1.0990654 1.41445161zm11.0394584 6.56825805c.2424409 0 .3394173-.0975484.3394173-.3414193v-1.9184517c0-.2438709-.0969764-.3414193-.3394173-.3414193h-2.295107c-.2424409 0-.3070918-.0650323-.3070918-.3089032v-1.6095484c0-.243871.0646509-.3089032.3070918-.3089032h2.295107c.2424409 0 .3394173-.0975484.3394173-.3414194v-1.91845161c0-.24387097-.0969764-.34141936-.3394173-.34141936h-2.295107c-.2424409 0-.3070918-.06503226-.3070918-.30890322v-1.54451613c0-.24387097.0646509-.30890323.3070918-.30890323h2.295107c.2424409 0 .3394173-.09754839.3394173-.34141935v-1.91845162c0-.24387096-.0969764-.34141935-.3394173-.34141935h-5.1720721c-.2424409 0-.3394172.09754839-.3394172.34141935v11.51070972c0 .2438709.0969763.3414193.3394172.3414193zm4.4289037 0c.2424409 0 .3394173-.0975484.3394173-.3414193v-4.8286452c0-.1138065.1293018-.1300645.17779-.0325161l2.4405715 4.8611613c.1131391.2276129.2262782.3414193.5010445.3414193h1.6647607c.2424409 0 .3394173-.0975484.3394173-.3414193v-11.51070972c0-.24387096-.0969764-.34141935-.3394173-.34141935h-2.2304561c-.2424409 0-.3394172.09754839-.3394172.34141935v4.82864517c0 .11380645-.1293018.13006451-.17779.03251612l-2.4405716-4.86116129c-.113139-.2276129-.2262781-.34141935-.5010444-.34141935h-1.6647608c-.2424409 0-.3394172.09754839-.3394172.34141935v11.51070972c0 .2438709.0969763.3414193.3394172.3414193zm9.6333013 0c.2424409 0 .3394173-.0975484.3394173-.3414193v-4.8286452c0-.1138065.1293018-.1300645.17779-.0325161l2.4405715 4.8611613c.1131391.2276129.2262782.3414193.5010445.3414193h1.6647607c.2424409 0 .3394173-.0975484.3394173-.3414193v-11.51070972c0-.24387096-.0969764-.34141935-.3394173-.34141935h-2.2304561c-.2424409 0-.3394172.09754839-.3394172.34141935v4.82864517c0 .11380645-.1293018.13006451-.17779.03251612l-2.4405716-4.86116129c-.113139-.2276129-.2262781-.34141935-.5010444-.34141935h-1.6647608c-.2424409 0-.3394172.09754839-.3394172.34141935v11.51070972c0 .2438709.0969763.3414193.3394172.3414193zm12.5749174 0c.2424409 0 .3394172-.0975484.3394172-.3414193v-1.9184517c0-.2438709-.0969763-.3414193-.3394172-.3414193h-2.295107c-.2424409 0-.3070918-.0650323-.3070918-.3089032v-1.6095484c0-.243871.0646509-.3089032.3070918-.3089032h2.295107c.2424409 0 .3394172-.0975484.3394172-.3414194v-1.91845161c0-.24387097-.0969763-.34141936-.3394172-.34141936h-2.295107c-.2424409 0-.3070918-.06503226-.3070918-.30890322v-1.54451613c0-.24387097.0646509-.30890323.3070918-.30890323h2.295107c.2424409 0 .3394172-.09754839.3394172-.34141935v-1.91845162c0-.24387096-.0969763-.34141935-.3394172-.34141935h-5.1720722c-.2424408 0-.3394172.09754839-.3394172.34141935v11.51070972c0 .2438709.0969764.3414193.3394172.3414193zm4.4289037 0c.2424409 0 .3394172-.0975484.3394172-.3414193v-3.1540646c0-.2438709.0646509-.3089032.3070918-.3089032h.4525563l1.3738313 3.5767742c.064651.1625807.193953.2276129.404069.2276129h2.392083c.161627 0 .226278-.1300645.145464-.3251613l-1.777899-4.3409032c.824299-.7153548 1.325343-1.82090323 1.325343-3.15406452v-.35767742c0-2.35741935-1.583947-4.01574193-3.6689386-4.01574193h-3.5234741c-.2424409 0-.3394173.09754839-.3394173.34141935v11.51070972c0 .2438709.0969764.3414193.3394173.3414193zm.9536008-6.56825805h-.3070918c-.2424409 0-.3070918-.06503226-.3070918-.30890322v-2.40619355c0-.24387097.0646509-.30890323.3070918-.30890323h.3070918c.5980208 0 1.0990653.47148387 1.0990653 1.41445161v.19509678c0 .94296774-.5010445 1.41445161-1.0990653 1.41445161z" fill="#0068b4"/><path d="m112.702006 23.542522c.393023 0 .576433-.1583578.628836-.5542522l.445425-3.1143695c.052403-.3958944-.078604-.5542522-.471626-.5542522h-3.039374c-.393023 0-.497829-.1055719-.445426-.5014663l2.043717-14.51612901c.052403-.39589443-.078604-.5542522-.471627-.5542522h-3.615806c-.393023 0-.576433.15835777-.628836.5542522l-2.62015 18.68621701c-.052403.3958944.078604.5542522.471627.5542522zm11.202759 0c.393022 0 .576433-.1583578.628836-.5542522l.445425-3.1143695c.052403-.3958944-.078604-.5542522-.471627-.5542522h-3.720613c-.393022 0-.497828-.1055719-.445425-.5014663l.366821-2.6129032c.052403-.3958944.18341-.5014663.576433-.5014663h3.720612c.393023 0 .576433-.1583578.628836-.5542522l.445426-3.1143695c.052403-.3958944-.078605-.5542522-.471627-.5542522h-3.720613c-.393022 0-.497828-.1055718-.445425-.5014663l.366821-2.50733134c.052403-.39589443.157209-.50146627.550231-.50146627h3.720613c.393022 0 .576433-.15835777.628836-.5542522l.445425-3.1143695c.052403-.39589443-.078604-.5542522-.471627-.5542522h-8.384479c-.393022 0-.576433.15835777-.628836.5542522l-2.620149 18.68621701c-.052403.3958944.078604.5542522.471627.5542522zm8.949429.2639296c4.244643 0 6.419367-2.9296188 7.048203-6.0967742.052403-.2639296.052403-.4750733-.262015-.4750733h-3.773015c-.288217 0-.471627.1319648-.52403.4222874-.131008.7917889-.707441 1.7683284-1.886508 1.7683284-1.545889 0-1.493486-1.6099706-1.257672-3.2727272l.681239-5.0146628c.235813-1.66275659.655037-3.27272726 2.200926-3.27272726 1.179067 0 1.441082.97653959 1.362477 1.76832845-.026201.29032258.131008.42228741.419224.42228741h3.773016c.314418 0 .393022-.21114372.419224-.47507334.314418-3.21994135-1.126664-6.09677419-5.371307-6.09677419-4.506657 0-6.890994 3.14076246-7.51983 7.65395893l-.681239 5.0146628c-.628835 4.5131964.86465 7.6539589 5.371307 7.6539589z" fill="#89b1c9"/><path d="m44.5445109 23.7446484c.1037629 0 .1452681-.0412022.1452681-.1442076v-.2266118c0-.1030054-.0415052-.1373405-.1452681-.1442075-.249031-.0068671-.4081341-.1373405-.4081341-.4532237v-4.0378111c0-.1030053-.0415051-.1442075-.145268-.1442075h-.2974536c-.1037629 0-.1452681.0412022-.1452681.1442075v4.003476c0 .7141706.3182062 1.0025857.9961238 1.0025857zm1.6854739.0618032c.525732 0 1.0998866-.3364842 1.0998866-1.2360646v-1.2085965c0-.8927133-.5741546-1.2291976-1.0998866-1.2291976-.5188145 0-1.0929692.3364843-1.0929692 1.2291976v1.2085965c0 .8995804.5741547 1.2360646 1.0929692 1.2360646zm0-.535628c-.2282784 0-.5049795-.1579416-.5049795-.6111653v-1.3802721c0-.4600907.2767011-.6111653.5049795-.6111653.2351958 0 .5118969.1510746.5118969.6111653v1.3802721c0 .4532237-.2767011.6111653-.5118969.6111653zm2.6262574.4738248c.1106804 0 .1591031-.0343351.1798557-.1373405l.4911444-2.1219109c.013835-.0480692.0691752-.0480692.0830103 0l.4980619 2.1219109c.0207526.1030054.0691752.1373405.1798557.1373405h.2144433c.1106804 0 .1521856-.0274681.1798557-.1373405l.7540103-3.2755712c.0207526-.0892714-.013835-.1373405-.0899278-.1373405h-.3458763c-.0899279 0-.1383506.0480691-.1591031.1373405l-.4427217 2.156246c-.0069175.0480692-.0691753.0549362-.0830103 0l-.4842269-2.156246c-.0276701-.1098724-.0691752-.1373405-.1798557-.1373405h-.1591031c-.1106804 0-.1591031.0274681-.1798557.1373405l-.4842268 2.156246c-.0138351.0549362-.0760928.0480692-.0830103 0l-.4496392-2.156246c-.0207526-.0892714-.0691753-.1373405-.1591031-.1373405h-.3389588c-.0760928 0-.1106805.0480691-.0899279.1373405l.7540104 3.2755712c.0207526.1098724.0691753.1373405.1798557.1373405zm4.0443503.0618032c.4773094 0 .9269486-.274681.9892063-.8240431.0069175-.0618032-.0069175-.1236064-.0899278-.1236064h-.3320413c-.0622577 0-.0968454.0206011-.1175979.0824043-.0622578.1716756-.2075258.3296172-.4496393.3296172-.2490309 0-.5118969-.1579416-.5118969-.5905642v-.6042982c0-.0549362.013835-.0686703.0691753-.0686703h1.3489176c.1037629 0 .1383505-.0412021.1452681-.1442075.0069175-.1304735.013835-.2266119.013835-.3708194v-.1304735c0-.9270484-.5603196-1.2291976-1.0652991-1.2291976-.5326495 0-1.0929691.3296173-1.0929691 1.2910008v1.0918571c0 .9613836.5603196 1.2910008 1.0929691 1.2910008zm.4634743-2.2386503h-.9061959c-.0553403 0-.0691753-.0137341-.0691753-.0686703v-.2403459c0-.4600907.2905361-.6111652.5188145-.6111652.2351959 0 .525732.1510745.525732.6111652v.2403459c0 .0549362-.0138351.0686703-.0691753.0686703zm1.7200615 2.1768471c.1037629 0 .1452681-.0412022.1452681-.1442076v-2.2180492c0-.4188886.2697835-.6042983.6156598-.6042983.1037629 0 .1452681-.0412021.1452681-.1442075v-.3158832c0-.1030054-.0415052-.1442075-.1452681-.1442075-.2213608 0-.4703918.1030054-.657165.3296172l-.0345876-.1648086c-.0207526-.1030054-.0484227-.1442075-.1521856-.1442075h-.2144433c-.1037629 0-.1452681.0412021-.1452681.1442075v3.2618371c0 .1030054.0415052.1442076.1452681.1442076zm3.8966797.0618032c.4773093 0 .9269486-.274681.9892063-.8240431.0069175-.0618032-.0069175-.1236064-.0899278-.1236064h-.3320413c-.0622578 0-.0968454.0206011-.117598.0824043-.0622577.1716756-.2075258.3296172-.4496392.3296172-.2490309 0-.5118969-.1579416-.5118969-.5905642v-.6042982c0-.0549362.013835-.0686703.0691752-.0686703h1.3489177c.1037629 0 .1383505-.0412021.145268-.1442075.0069176-.1304735.0138351-.2266119.0138351-.3708194v-.1304735c0-.9270484-.5603197-1.2291976-1.0652991-1.2291976-.5326495 0-1.0929691.3296173-1.0929691 1.2910008v1.0918571c0 .9613836.5603196 1.2910008 1.0929691 1.2910008zm.4634743-2.2386503h-.906196c-.0553402 0-.0691752-.0137341-.0691752-.0686703v-.2403459c0-.4600907.2905361-.6111652.5188144-.6111652.2351959 0 .5257321.1510745.5257321.6111652v.2403459c0 .0549362-.0138351.0686703-.0691753.0686703zm1.7200615 2.1768471c.1037629 0 .145268-.0412022.145268-.1442076v-2.3210546c0-.4051545.2213609-.6042982.4703918-.6111653.2421134-.013734.4980619.1510746.4980619.6111653v2.3210546c0 .1030054.0415052.1442076.1452681.1442076h.2974536c.1037629 0 .1452681-.0412022.1452681-.1442076v-2.3004535c0-.4326226.2213608-.6248993.4703918-.6317664.2351959-.013734.4980619.1510746.4980619.6111653v2.3210546c0 .1030054.0415051.1442076.145268.1442076h.2905361c.1037629 0 .1452681-.0412022.1452681-.1442076v-2.3622567c0-.789708-.4980619-1.1536603-.9892063-1.0918571-.2767011.0343351-.525732.2128778-.6986702.4600907-.1798556-.3502183-.5188144-.5012929-.8508557-.4600907-.2767011.0343351-.4703918.2060108-.6018248.3845534l-.0415052-.1922767c-.0207525-.1030054-.0484226-.1442075-.1521855-.1442075h-.2144434c-.1037629 0-.145268.0412021-.145268.1442075v3.2618371c0 .1030054.0415051.1442076.145268.1442076zm4.2587936-4.3742953c.2144434 0 .3942991-.1785427.3942991-.3982875 0-.2128778-.1798557-.3914204-.3942991-.3914204-.2213608 0-.4012165.1785426-.4012165.3914204 0 .2197448.1798557.3982875.4012165.3982875zm.1452681 4.3742953c.1037629 0 .1452681-.0412022.1452681-.1442076v-3.2618371c0-.1030054-.0415052-.1442075-.1452681-.1442075h-.2974536c-.1037629 0-.1452681.0412021-.1452681.1442075v3.2618371c0 .1030054.0415052.1442076.1452681.1442076zm1.7477316.0618032c.5395671 0 1.037629-.3364842 1.0445465-.9407825.0069175-1.0369208-1.445763-1.2772667-1.4388455-1.8540969.0069175-.1854097.1521856-.3708194.394299-.3639523.2351959 0 .3527938.1922767.394299.3502183.0207526.0618032.0553402.0824043.1175979.0824043h.3182063c.0830103 0 .0968453-.0618033.0899278-.1236065-.0345876-.5081599-.4634743-.8240431-.9338661-.8240431-.5326495 0-.9684537.3845535-.9546186.9201815.0345876.9545165 1.4250104 1.1261922 1.4180929 1.8128947 0 .2815481-.2144433.4257556-.4565567.4257556-.249031 0-.394299-.1579416-.4565568-.3502183-.0207526-.0618032-.0553402-.0824043-.1175979-.0824043h-.3458763c-.0830104 0-.1037629.0618032-.0899279.1236064.0899279.5012929.4773093.8240431 1.0168764.8240431zm2.5086595 0c.539567 0 1.0376289-.3364842 1.0445465-.9407825.0069175-1.0369208-1.445763-1.2772667-1.4388455-1.8540969.0069175-.1854097.1521856-.3708194.394299-.3639523.2351959 0 .3527938.1922767.394299.3502183.0207526.0618032.0553402.0824043.1175979.0824043h.3182063c.0830103 0 .0968453-.0618033.0899278-.1236065-.0345876-.5081599-.4634743-.8240431-.9338661-.8240431-.5326495 0-.9684537.3845535-.9546186.9201815.0345876.9545165 1.4250104 1.1261922 1.4180929 1.8128947 0 .2815481-.2144433.4257556-.4565567.4257556-.249031 0-.394299-.1579416-.4565568-.3502183-.0207526-.0618032-.0553402-.0824043-.1175979-.0824043h-.3458763c-.0830104 0-.1037629.0618032-.0899279.1236064.0899279.5012929.4773093.8240431 1.0168764.8240431zm1.9068347-4.4360985c.2144433 0 .394299-.1785427.394299-.3982875 0-.2128778-.1798557-.3914204-.394299-.3914204-.2213609 0-.4012165.1785426-.4012165.3914204 0 .2197448.1798556.3982875.4012165.3982875zm.145268 4.3742953c.1037629 0 .1452681-.0412022.1452681-.1442076v-3.2618371c0-.1030054-.0415052-.1442075-.1452681-.1442075h-.2974536c-.1037629 0-.145268.0412021-.145268.1442075v3.2618371c0 .1030054.0415051.1442076.145268.1442076zm1.9068347.0618032c.525732 0 1.0998867-.3364842 1.0998867-1.2360646v-1.2085965c0-.8927133-.5741547-1.2291976-1.0998867-1.2291976-.5188144 0-1.0929691.3364843-1.0929691 1.2291976v1.2085965c0 .8995804.5741547 1.2360646 1.0929691 1.2360646zm0-.535628c-.2282783 0-.5049794-.1579416-.5049794-.6111653v-1.3802721c0-.4600907.2767011-.6111653.5049794-.6111653.2351959 0 .511897.1510746.511897.6111653v1.3802721c0 .4532237-.2767011.6111653-.511897.6111653zm2.2112059.4738248c.1037629 0 .1452681-.0412022.1452681-.1442076v-2.3210546c0-.4051545.2421134-.6042982.4911443-.6111653.2421135-.013734.525732.1510746.525732.6111653v2.3210546c0 .1030054.0415052.1442076.1452681.1442076h.2974536c.1037629 0 .1452681-.0412022.1452681-.1442076v-2.3622567c0-.789708-.525732-1.1536603-1.0168764-1.0918571-.2767011.0343351-.4842268.2060108-.6225774.3845534l-.0415051-.1922767c-.0207526-.1030054-.0484227-.1442075-.1521856-.1442075h-.2144433c-.1037629 0-.1452681.0412021-.1452681.1442075v3.2618371c0 .1030054.0415052.1442076.1452681.1442076zm3.3525977.0618032c.5395671 0 1.037629-.3364842 1.0445465-.9407825.0069175-1.0369208-1.445763-1.2772667-1.4388455-1.8540969.0069175-.1854097.1521856-.3708194.394299-.3639523.2351959 0 .3527939.1922767.394299.3502183.0207526.0618032.0553402.0824043.117598.0824043h.3182062c.0830103 0 .0968454-.0618033.0899278-.1236065-.0345876-.5081599-.4634742-.8240431-.933866-.8240431-.5326496 0-.9684537.3845535-.9546187.9201815.0345877.9545165 1.4250105 1.1261922 1.4180929 1.8128947 0 .2815481-.2144433.4257556-.4565567.4257556-.249031 0-.394299-.1579416-.4565567-.3502183-.0207526-.0618032-.0553403-.0824043-.117598-.0824043h-.3458763c-.0830103 0-.1037629.0618032-.0899279.1236064.0899279.5012929.4773094.8240431 1.0168764.8240431zm4.1664633 0c.4842268 0 .9269485-.274681.9961238-.8240431.0069175-.0618032-.0069176-.1236064-.0899279-.1236064h-.3251237c-.0622578 0-.0968454.0206011-.117598.0824043-.0553402.1716756-.2075258.3296172-.4496392.3296172s-.5049794-.1579416-.5049794-.5905642v-1.4214743c0-.4326226.262866-.5905642.5049794-.5905642s.3873815.1510746.4496392.3296173c.0207526.0618032.0553402.0824043.117598.0824043h.3251237c.0830103 0 .0968454-.0618033.0899279-.1236065-.0622578-.549362-.511897-.8240431-.9961238-.8240431-.5395671 0-1.0791342.3296173-1.0791342 1.2291976v1.2085965c0 .9064474.5395671 1.2360646 1.0791342 1.2360646zm2.7231028 0c.525732 0 1.0998867-.3364842 1.0998867-1.2360646v-1.2085965c0-.8927133-.5741547-1.2291976-1.0998867-1.2291976-.5188145 0-1.0929692.3364843-1.0929692 1.2291976v1.2085965c0 .8995804.5741547 1.2360646 1.0929692 1.2360646zm0-.535628c-.2282784 0-.5049794-.1579416-.5049794-.6111653v-1.3802721c0-.4600907.276701-.6111653.5049794-.6111653.2351959 0 .5118969.1510746.5118969.6111653v1.3802721c0 .4532237-.276701.6111653-.5118969.6111653zm2.2112058.4738248c.1037629 0 .1452681-.0412022.1452681-.1442076v-2.2180492c0-.4188886.2697835-.6042983.6156598-.6042983.1037629 0 .1452681-.0412021.1452681-.1442075v-.3158832c0-.1030054-.0415052-.1442075-.1452681-.1442075-.2213608 0-.4703918.1030054-.657165.3296172l-.0345876-.1648086c-.0207526-.1030054-.0484227-.1442075-.1521856-.1442075h-.2144433c-.1037629 0-.145268.0412021-.145268.1442075v3.2618371c0 .1030054.0415051.1442076.145268.1442076zm1.7684842 0c.1037629 0 .1452681-.0412022.1452681-.1442076v-2.2180492c0-.4188886.2697835-.6042983.6156598-.6042983.1037629 0 .1452681-.0412021.1452681-.1442075v-.3158832c0-.1030054-.0415052-.1442075-.1452681-.1442075-.2213608 0-.4703918.1030054-.657165.3296172l-.0345876-.1648086c-.0207526-.1030054-.0484227-.1442075-.1521856-.1442075h-.2144433c-.1037629 0-.1452681.0412021-.1452681.1442075v3.2618371c0 .1030054.0415052.1442076.1452681.1442076zm1.6232161-4.3742953c.2144433 0 .394299-.1785427.394299-.3982875 0-.2128778-.1798557-.3914204-.394299-.3914204-.2213608 0-.4012165.1785426-.4012165.3914204 0 .2197448.1798557.3982875.4012165.3982875zm.1452681 4.3742953c.1037629 0 .145268-.0412022.145268-.1442076v-3.2618371c0-.1030054-.0415051-.1442075-.145268-.1442075h-.2974537c-.1037628 0-.145268.0412021-.145268.1442075v3.2618371c0 .1030054.0415052.1442076.145268.1442076zm1.8307419.0480692c.276701-.0412022.4842268-.2128778.6225774-.3914205l.0415051.1922767c.0207526.1030054.0484227.1510746.1521856.1510746h.2144433c.1037629 0 .1452681-.0412022.1452681-.1442076v-4.8618541c0-.1030053-.0415052-.1442075-.1452681-.1442075h-.2974536c-.1037629 0-.1452681.0412022-.1452681.1442075v1.7510916c-.1383505-.1579416-.3389588-.3090162-.5879897-.3433513-.4911444-.0618032-1.0168764.3021491-1.0168764 1.0918571v1.4626764c0 .7897079.525732 1.1536603 1.0168764 1.0918571zm-.4288866-1.1330593v-1.3802721c0-.4600907.2836185-.6248993.525732-.6111653.2490309.0068671.4911443.2060108.4911443.6111653v1.3802721c0 .3982875-.2421134.6042983-.4911443.6111653-.2421135.0137341-.525732-.1579416-.525732-.6111653zm3.3664327 1.1467933c.525732 0 1.0998867-.3364842 1.0998867-1.2360646v-1.2085965c0-.8927133-.5741547-1.2291976-1.0998867-1.2291976-.5188145 0-1.0929691.3364843-1.0929691 1.2291976v1.2085965c0 .8995804.5741546 1.2360646 1.0929691 1.2360646zm0-.535628c-.2282783 0-.5049794-.1579416-.5049794-.6111653v-1.3802721c0-.4600907.2767011-.6111653.5049794-.6111653.2351959 0 .511897.1510746.511897.6111653v1.3802721c0 .4532237-.2767011.6111653-.511897.6111653zm2.2112059.4738248c.1037629 0 .145268-.0412022.145268-.1442076v-2.2180492c0-.4188886.2697836-.6042983.6156599-.6042983.1037629 0 .145268-.0412021.145268-.1442075v-.3158832c0-.1030054-.0415051-.1442075-.145268-.1442075-.2213609 0-.4703918.1030054-.657165.3296172l-.0345877-.1648086c-.0207525-.1030054-.0484226-.1442075-.1521855-.1442075h-.2144433c-.1037629 0-.1452681.0412021-.1452681.1442075v3.2618371c0 .1030054.0415052.1442076.1452681.1442076z" fill="#54af2f"/></g><g transform="translate(5.642021 14.418498)"><path d="m0 3.53642827c3.31803743-1.41534832 5.0861736-2.16798494 5.3044085-2.25790986.32735235-.13488738 1.25553987-.40500421 1.98563927-.32296577.73009941.08203844 4.65832763.78631742 8.26911643 1.32698169 2.4071925.36044285 5.2659086 1.59537122 8.5761484 3.70478511v4.98327716h-24.1353126z" fill="#a2cbde"/><path d="m24.1353126 1.38003563c-.604289-.18277942-1.6765228-.4918624-2.6060915-.7617704-1.5546919-.45141772-3.0558631-.7319973-3.7090883-.57374707-1.0342547.25055841-1.6672937 1.08962385-2.5337179 2.14138129-.8664243 1.05175744-1.2921431 1.349642-1.9934474 1.40473601-.5508653.04327561-1.1670949-.20079622-1.8865201-.54530284-1.63155555-.78129274-1.91301244-.9242714-2.66500094-.9242714s-1.673414.9360378-2.56663801 1.75748361c-.72066876.66275686-1.36906547 1.2081184-1.61395351 1.41478088-.36560766.3085385-1.42853118 1.23955671-3.18877057 2.79305461l-1.37208437 2.88421628h24.1353126c0-6.3937073 0-9.59056097 0-9.59056097z" fill="#88b2ca"/><path d="m0 5.95546674c1.20664725.88887143 1.86919515 1.38309223 1.9876437 1.48266243.17767282.14935528.70652092.68658225 1.31530433.73061195s.89527308-.10849406 1.49299553-.44485576 1.87872625-1.04397401 2.4818796-1.01955305c.60315336.02442097.84504197.28085583 1.44726003.48114842.20470619.06808353 1.99186021.58411607 4.23403651 1.06533647 1.939601.41628105 4.2841617.85498355 6.3240576 1.27452504 2.5392503.52224276 4.6154701 1.02472586 4.8521353 1.14476796v4.5860555c-3.8509569 2.9939388-7.8100057 4.4909082-11.8771465 4.4909082-4.06714068 0-8.15319606-1.4969694-12.2581661-4.4909082" fill="#6792aa"/></g><path d="m17.7096774 0c9.7807848 0 17.7096774 7.92889266 17.7096774 17.7096774 0 9.7807848-7.9288926 17.7096774-17.7096774 17.7096774-9.78078474 0-17.7096774-7.9288926-17.7096774-17.7096774 0-9.78078474 7.92889266-17.7096774 17.7096774-17.7096774zm0 5.64202112c-6.6647825 0-12.06765628 5.40287378-12.06765628 12.06765628 0 6.6647826 5.40287378 12.0676563 12.06765628 12.0676563 6.6647826 0 12.0676563-5.4028737 12.0676563-12.0676563 0-6.6647825-5.4028737-12.06765628-12.0676563-12.06765628z" fill="#0068b4" fill-rule="nonzero"/><g transform="translate(18 18)"><path d="m0 0 29.4705681 10.1746112-13.1778075 7.7938099z" fill="#fff"/><g fill="#54af2f"><path d="m0 0 29.4705681 10.1746112-4.4049734 2.6052532z"/><path d="m0 0 22.9839971 14.010993-6.6912365 3.9574281z"/></g></g></g></svg>