<svg height="114" viewBox="0 0 361 114" width="361" xmlns="http://www.w3.org/2000/svg"><g fill="none" fill-rule="evenodd"><path d="m0 0h360v115h-360z" fill="#fff" fill-opacity=".5"/><rect fill="#fff" fill-opacity=".5" height="105" rx="2" width="360" y="10"/><rect fill="#fff" fill-opacity=".5" height="95" rx="2" width="360" y="20"/><path d="m0 26.5272499c29.7392723 10.1476407 45.9270644 14.5621277 48.5633762 13.2434609 3.9544677-1.9780003-29.2250244-16.9005283-8.8832584-13.2434609 8.4484812 1.5188781 46.6240663 10.9365884 57.6673639 11.3568764 49.5710383 1.8865845-44.8243088-17.8841263 24.4870383-11.3568764 75.791402 7.1374954-24.4870383 17.3542371 25.084 17.3542371 28.160162 0 106.132548 7.7832905 109.70581-4.1107762 1.340063-4.4605716-84.069379-26.2979607-11.794306-19.7707108 48.183382 4.3514999 86.614817 4.3128754 115.294306-.1158737v19.8865845c-21.727828-5.4752733-33.748331-6.1041347-36.061509-1.8865845-2.313177 4.2175503 9.707326 6.9924035 36.061509 8.3245596v50.318564h-360.12433v-34.0272499c12.8922345-3.5035872 19.3383518-6.5056688 19.3383518-9.0062447s-6.4461173-3.7508638-19.3383518-3.7508638z" fill="#a2cbde" fill-opacity=".15" transform="matrix(-1 0 0 1 360.12433 0)"/><path d="m0 87.8923054c25.3333333-26.9360254 41.6666667-40.404038 49-40.404038 11 0 15.0923738-9.4882674 22.0461869-9.4882674 4.6358754 0 38.9952561 23.6666667 103.0781431 71h-174.12433z" fill="#a2cbde"/><path d="m186 86.405848c18.371597-20.5123796 30.31276-32.4298414 35.823488-35.7523854 4.24941-2.5620667 6.456321 2.415813 8.94622 2.415813 6.278196 0 19.198335-20.0692756 26.152149-20.0692756 4.635875 0 38.995256 25.3333333 103.078143 76h-174z" fill="#a2cbde" transform="matrix(-1 0 0 1 546 0)"/><path d="m48 99.4323667c43.2522732-27.3289344 67.281314-40.9934016 72.087122-40.9934016 7.208712 0 49.805648-38.4389651 61.601722-38.4389651 11.796075 0 52.029323 39.7161834 60.482104 39.7161834 8.45278 0 12.791707-1.0177068 19.506415 5.123155 4.476473 4.0939079 30.584018 20.4807951 78.322637 49.1606616z" fill="#88b2ca"/><path d="m0 83.2505598c31.9404263-5.6674131 64.9475109-5.6674131 99.0212538 0 34.0737432 5.667413 70.0666582 15.8787965 107.9787462 30.6341502l-207 .11529z" fill="#4c7e72"/><path d="m87 83.2505598c42.12433-5.6674131 85.655413-5.6674131 130.593248 0 44.937835 5.667413 92.406752 15.8787965 142.406752 30.6341502l-273 .11529z" fill="#4c7e72" transform="matrix(-1 0 0 1 447 0)"/><path d="m155.599521 96.5272499c37.599995 2.7027689 57.161222 5.2136891 58.683681 7.5327611 1.761536 2.683244-5.666198 5.996574-22.283202 9.939989h23c7.296789-3.333333 9.470319-6.646663 6.52059-9.939989s-24.923419-5.8042464-65.921069-7.5327611z" fill="#d8d8d8"/><g fill="#4c7e72"><path d="m305.329956 74.8387097 1.235908-2.2513098c.198869-.362258.579303-.5873999.992558-.5873999.409614 0 .782989.2347402.960524.6038811l.797833 1.6588938c.865583 0 1.567276.7016934 1.567276 1.5672761 0 .0372578-.001328.0745038-.003983.1116669l-.084979 1.1896695c-.115454 1.6163193-1.46039 2.8686126-3.080828 2.8686126h-1.13362c-1.425251 0-2.580645-1.1553942-2.580645-2.5806452v-1.2506893c0-.7345143.595442-1.3299558 1.329956-1.3299558z"/><path d="m311.329956 75.8387097 1.235908-2.2513098c.198869-.362258.579303-.5873999.992558-.5873999.409614 0 .782989.2347402.960524.6038811l.797833 1.6588938c.865583 0 1.567276.7016934 1.567276 1.5672761 0 .0372578-.001328.0745038-.003983.1116669l-.084979 1.1896695c-.115454 1.6163193-1.46039 2.8686126-3.080828 2.8686126h-1.13362c-1.425251 0-2.580645-1.1553942-2.580645-2.5806452v-1.2506893c0-.7345143.595442-1.3299558 1.329956-1.3299558z"/><path d="m344.329956 79.8387097 1.235908-2.2513098c.198869-.362258.579303-.5873999.992558-.5873999.409614 0 .782989.2347402.960524.6038811l.797833 1.6588938c.865583 0 1.567276.7016934 1.567276 1.5672761 0 .0372578-.001328.0745038-.003983.1116669l-.084979 1.1896695c-.115454 1.6163193-1.46039 2.8686126-3.080828 2.8686126h-1.13362c-1.425251 0-2.580645-1.1553942-2.580645-2.5806452v-1.2506893c0-.7345143.595442-1.3299558 1.329956-1.3299558z"/><path d="m316.329956 74.8387097 1.235908-2.2513098c.198869-.362258.579303-.5873999.992558-.5873999.409614 0 .782989.2347402.960524.6038811l.797833 1.6588938c.865583 0 1.567276.7016934 1.567276 1.5672761 0 .0372578-.001328.0745038-.003983.1116669l-.084979 1.1896695c-.115454 1.6163193-1.46039 2.8686126-3.080828 2.8686126h-1.13362c-1.425251 0-2.580645-1.1553942-2.580645-2.5806452v-1.2506893c0-.7345143.595442-1.3299558 1.329956-1.3299558z"/><path d="m349.329956 78.8387097 1.235908-2.2513098c.198869-.362258.579303-.5873999.992558-.5873999.409614 0 .782989.2347402.960524.6038811l.797833 1.6588938c.865583 0 1.567276.7016934 1.567276 1.5672761 0 .0372578-.001328.0745038-.003983.1116669l-.084979 1.1896695c-.115454 1.6163193-1.46039 2.8686126-3.080828 2.8686126h-1.13362c-1.425251 0-2.580645-1.1553942-2.580645-2.5806452v-1.2506893c0-.7345143.595442-1.3299558 1.329956-1.3299558z"/><path d="m1.32995586 80.8387097 1.23590772-2.2513098c.19886975-.362258.57930309-.5873999.99255848-.5873999.40961435 0 .78298855.2347402.96052419.6038811l.79783294 1.6588938c.86558269 0 1.5672761.7016934 1.5672761 1.5672761 0 .0372578-.00132856.0745038-.00398314.1116669l-.08497877 1.1896695c-.11545461 1.6163193-1.4603907 2.8686126-3.08082818 2.8686126h-1.13362004c-1.42525097 0-2.58064516-1.1553942-2.58064516-2.5806452v-1.2506893c0-.7345143.59544152-1.3299558 1.32995586-1.3299558z"/><path d="m5.32995586 78.8387097 1.23590772-2.2513098c.19886975-.362258.57930309-.5873999.99255848-.5873999.40961435 0 .78298855.2347402.96052419.6038811l.79783294 1.6588938c.86558271 0 1.56727611.7016934 1.56727611 1.5672761 0 .0372578-.0013286.0745038-.0039832.1116669l-.0849787 1.1896695c-.1154546 1.6163193-1.46039072 2.8686126-3.0808282 2.8686126h-1.13362004c-1.42525097 0-2.58064516-1.1553942-2.58064516-2.5806452v-1.2506893c0-.7345143.59544152-1.3299558 1.32995586-1.3299558z"/><path d="m11.3299559 79.8387097 1.2359077-2.2513098c.1988697-.362258.5793031-.5873999.9925585-.5873999.4096143 0 .7829885.2347402.9605242.6038811l.7978329 1.6588938c.8655827 0 1.5672761.7016934 1.5672761 1.5672761 0 .0372578-.0013286.0745038-.0039832.1116669l-.0849787 1.1896695c-.1154546 1.6163193-1.4603907 2.8686126-3.0808282 2.8686126h-1.13362c-1.425251 0-2.5806452-1.1553942-2.5806452-2.5806452v-1.2506893c0-.7345143.5954415-1.3299558 1.3299559-1.3299558z"/><path d="m18.3299559 78.8387097 1.2359077-2.2513098c.1988697-.362258.5793031-.5873999.9925585-.5873999.4096143 0 .7829885.2347402.9605242.6038811l.7978329 1.6588938c.8655827 0 1.5672761.7016934 1.5672761 1.5672761 0 .0372578-.0013286.0745038-.0039832.1116669l-.0849787 1.1896695c-.1154546 1.6163193-1.4603907 2.8686126-3.0808282 2.8686126h-1.13362c-1.425251 0-2.5806452-1.1553942-2.5806452-2.5806452v-1.2506893c0-.7345143.5954415-1.3299558 1.3299559-1.3299558z"/><path d="m321.329956 77.8387097 1.235908-2.2513098c.198869-.362258.579303-.5873999.992558-.5873999.409614 0 .782989.2347402.960524.6038811l.797833 1.6588938c.865583 0 1.567276.7016934 1.567276 1.5672761 0 .0372578-.001328.0745038-.003983.1116669l-.084979 1.1896695c-.115454 1.6163193-1.46039 2.8686126-3.080828 2.8686126h-1.13362c-1.425251 0-2.580645-1.1553942-2.580645-2.5806452v-1.2506893c0-.7345143.595442-1.3299558 1.329956-1.3299558z"/><path d="m354.329956 81.8387097 1.235908-2.2513098c.198869-.362258.579303-.5873999.992558-.5873999.409614 0 .782989.2347402.960524.6038811l.797833 1.6588938c.929617 0 1.683221.7536036 1.683221 1.6832208v1.1853917c0 1.584291-1.284322 2.8686126-2.868613 2.8686126h-1.550742c-1.425251 0-2.580645-1.1553942-2.580645-2.5806452v-1.2506893c0-.7345143.595442-1.3299558 1.329956-1.3299558z"/><path d="m299.329956 76.8387097 1.235908-2.2513098c.198869-.362258.579303-.5873999.992558-.5873999.409614 0 .782989.2347402.960524.6038811l.797833 1.6588938c.865583 0 1.567276.7016934 1.567276 1.5672761 0 .0372578-.001328.0745038-.003983.1116669l-.084979 1.1896695c-.115454 1.6163193-1.46039 2.8686126-3.080828 2.8686126h-1.13362c-1.425251 0-2.580645-1.1553942-2.580645-2.5806452v-1.2506893c0-.7345143.595442-1.3299558 1.329956-1.3299558z"/></g></g></svg>